<svg width="25" height="24" viewBox="0 0 25 24" fill="none" xmlns="http://www.w3.org/2000/svg">
<g id="eva:arrow-ios-forward-fill">
<path id="Vector" d="M10.4748 5.0018C10.2431 5.00135 10.0186 5.08254 9.84017 5.2313C9.73976 5.31506 9.65676 5.41793 9.59592 5.53402C9.53509 5.65011 9.49761 5.77714 9.48563 5.90782C9.47366 6.03851 9.48742 6.17029 9.52614 6.29562C9.56486 6.42094 9.62776 6.53735 9.71126 6.63818L14.1537 11.9863L9.86992 17.3444C9.78755 17.4465 9.72604 17.5639 9.68892 17.69C9.6518 17.8161 9.63981 17.9482 9.65363 18.079C9.66745 18.2097 9.70682 18.3364 9.76946 18.4518C9.83211 18.5672 9.91679 18.669 10.0187 18.7513C10.1213 18.8421 10.2414 18.9107 10.3716 18.9526C10.5017 18.9945 10.6391 19.0088 10.775 18.9948C10.911 18.9807 11.0426 18.9385 11.1615 18.8709C11.2805 18.8032 11.3843 18.7116 11.4664 18.6016L16.2559 12.6149C16.4017 12.4364 16.4814 12.2124 16.4814 11.9813C16.4814 11.7502 16.4017 11.5263 16.2559 11.3477L11.2978 5.36101C11.1984 5.24026 11.072 5.14481 10.929 5.0824C10.786 5.01999 10.6304 4.99238 10.4748 5.0018Z" fill="white"/>
</g>
</svg>
