<svg width="25" height="24" viewBox="0 0 25 24" fill="none" xmlns="http://www.w3.org/2000/svg">
<g id="fluent:location-16-filled">
<g id="Group">
<path id="Vector" d="M12.4814 1C14.8684 1 17.1576 1.99337 18.8454 3.76159C20.5332 5.5298 21.4814 7.92801 21.4814 10.4286C21.4814 14.934 18.5789 19.081 12.8834 22.8776C12.7633 22.9575 12.6238 23 12.4814 23C12.3391 23 12.1996 22.9575 12.0794 22.8776C6.38395 19.081 3.48145 14.934 3.48145 10.4286C3.48145 7.92801 4.42966 5.5298 6.11748 3.76159C7.80531 1.99337 10.0945 1 12.4814 1ZM12.4814 7.28576C11.6858 7.28576 10.9227 7.61689 10.3601 8.20629C9.79752 8.7957 9.48145 9.5951 9.48145 10.4286C9.48145 11.2622 9.79752 12.0616 10.3601 12.651C10.9227 13.2404 11.6858 13.5715 12.4814 13.5715C13.2771 13.5715 14.0402 13.2404 14.6028 12.651C15.1654 12.0616 15.4814 11.2622 15.4814 10.4286C15.4814 9.5951 15.1654 8.7957 14.6028 8.20629C14.0402 7.61689 13.2771 7.28576 12.4814 7.28576Z" fill="#F59E0B"/>
</g>
</g>
</svg>
